<?xml version="1.0" encoding="utf-8"?>
<!-- Generator: Adobe Illustrator 19.2.1, SVG Export Plug-In . SVG Version: 6.00 Build 0)  -->
<svg version="1.1" id="Capa_1" xmlns="http://www.w3.org/2000/svg" xmlns:xlink="http://www.w3.org/1999/xlink" x="0px" y="0px"
	 viewBox="0 0 456 456" style="enable-background:new 0 0 456 456;" xml:space="preserve">
<style type="text/css">
	.st0{fill:#00ADEF;}
</style>
<g>
	<g>
		<path class="st0" d="M456,228C456,102.1,353.9,0,228,0C102.1,0,0,102.1,0,228c0,125.9,102.1,228,228,228
			C353.9,456,456,353.9,456,228z M217.2,299.4l-98.6-98.6c-5.9-5.9-5.9-15.6,0-21.5c5.9-5.9,15.6-5.9,21.5,0l87.9,87.9l87.9-87.9
			c5.9-5.9,15.6-5.9,21.5,0s5.9,15.6,0,21.5l-98.6,98.6c-3,3-6.9,4.5-10.8,4.4C224.1,303.9,220.2,302.4,217.2,299.4z"/>
	</g>
</g>
</svg>
